<?xml version="1.0" standalone="no"?>
<!DOCTYPE svg PUBLIC "-//W3C//DTD SVG 20010904//EN"
 "http://www.w3.org/TR/2001/REC-SVG-20010904/DTD/svg10.dtd">
<svg version="1.0" xmlns="http://www.w3.org/2000/svg"
 width="260.000000pt" height="260.000000pt" viewBox="0 0 260.000000 260.000000"
 preserveAspectRatio="xMidYMid meet">
<metadata>
Created by potrace 1.14, written by Peter Selinger 2001-2017
</metadata>
<g transform="translate(0.000000,260.000000) scale(0.100000,-0.100000)"
fill="#000000" stroke="none">
<path d="M755 2588 c-295 -55 -529 -229 -664 -495 -29 -58 -71 -188 -79 -248
-10 -70 -9 -1050 1 -1103 65 -344 325 -623 667 -714 83 -23 96 -23 620 -23
523 0 537 0 620 23 344 91 596 361 664 712 12 61 14 169 12 580 -1 278 -5 519
-9 535 -81 385 -357 661 -732 732 -52 10 -1048 11 -1100 1z"/>
</g>
</svg>
